<mxfile><diagram id="QWNcq-WvawGQkXCSm3Km" name="Page-1"><mxGraphModel dx="1473" dy="704" grid="1" gridSize="10" guides="1" tooltips="1" connect="1" arrows="1" fold="1" page="1" pageScale="1" pageWidth="850" pageHeight="1100" math="0" shadow="0"><root><mxCell id="0"/><mxCell id="1" parent="0"/><mxCell id="20" value="PESRONNE" style="shape=table;startSize=30;container=1;collapsible=1;childLayout=tableLayout;fixedRows=1;rowLines=0;fontStyle=1;align=center;resizeLast=1;" vertex="1" parent="1"><mxGeometry x="30" y="130" width="180" height="150" as="geometry"/></mxCell><mxCell id="21" value="" style="shape=tableRow;horizontal=0;startSize=0;swimlaneHead=0;swimlaneBody=0;fillColor=none;collapsible=0;dropTarget=0;points=[[0,0.5],[1,0.5]];portConstraint=eastwest;top=0;left=0;right=0;bottom=1;" vertex="1" parent="20"><mxGeometry y="30" width="180" height="30" as="geometry"/></mxCell><mxCell id="22" value="PK" style="shape=partialRectangle;connectable=0;fillColor=none;top=0;left=0;bottom=0;right=0;fontStyle=1;overflow=hidden;" vertex="1" parent="21"><mxGeometry width="30" height="30" as="geometry"><mxRectangle width="30" height="30" as="alternateBounds"/></mxGeometry></mxCell><mxCell id="23" value="idPers" style="shape=partialRectangle;connectable=0;fillColor=none;top=0;left=0;bottom=0;right=0;align=left;spacingLeft=6;fontStyle=5;overflow=hidden;" vertex="1" parent="21"><mxGeometry x="30" width="150" height="30" as="geometry"><mxRectangle width="150" height="30" as="alternateBounds"/></mxGeometry></mxCell><mxCell id="24" value="" style="shape=tableRow;horizontal=0;startSize=0;swimlaneHead=0;swimlaneBody=0;fillColor=none;collapsible=0;dropTarget=0;points=[[0,0.5],[1,0.5]];portConstraint=eastwest;top=0;left=0;right=0;bottom=0;" vertex="1" parent="20"><mxGeometry y="60" width="180" height="30" as="geometry"/></mxCell><mxCell id="25" value="" style="shape=partialRectangle;connectable=0;fillColor=none;top=0;left=0;bottom=0;right=0;editable=1;overflow=hidden;" vertex="1" parent="24"><mxGeometry width="30" height="30" as="geometry"><mxRectangle width="30" height="30" as="alternateBounds"/></mxGeometry></mxCell><mxCell id="26" value="nomPers" style="shape=partialRectangle;connectable=0;fillColor=none;top=0;left=0;bottom=0;right=0;align=left;spacingLeft=6;overflow=hidden;" vertex="1" parent="24"><mxGeometry x="30" width="150" height="30" as="geometry"><mxRectangle width="150" height="30" as="alternateBounds"/></mxGeometry></mxCell><mxCell id="27" value="" style="shape=tableRow;horizontal=0;startSize=0;swimlaneHead=0;swimlaneBody=0;fillColor=none;collapsible=0;dropTarget=0;points=[[0,0.5],[1,0.5]];portConstraint=eastwest;top=0;left=0;right=0;bottom=0;" vertex="1" parent="20"><mxGeometry y="90" width="180" height="30" as="geometry"/></mxCell><mxCell id="28" value="" style="shape=partialRectangle;connectable=0;fillColor=none;top=0;left=0;bottom=0;right=0;editable=1;overflow=hidden;" vertex="1" parent="27"><mxGeometry width="30" height="30" as="geometry"><mxRectangle width="30" height="30" as="alternateBounds"/></mxGeometry></mxCell><mxCell id="29" value="adressePers" style="shape=partialRectangle;connectable=0;fillColor=none;top=0;left=0;bottom=0;right=0;align=left;spacingLeft=6;overflow=hidden;" vertex="1" parent="27"><mxGeometry x="30" width="150" height="30" as="geometry"><mxRectangle width="150" height="30" as="alternateBounds"/></mxGeometry></mxCell><mxCell id="30" value="" style="shape=tableRow;horizontal=0;startSize=0;swimlaneHead=0;swimlaneBody=0;fillColor=none;collapsible=0;dropTarget=0;points=[[0,0.5],[1,0.5]];portConstraint=eastwest;top=0;left=0;right=0;bottom=0;" vertex="1" parent="20"><mxGeometry y="120" width="180" height="30" as="geometry"/></mxCell><mxCell id="31" value="" style="shape=partialRectangle;connectable=0;fillColor=none;top=0;left=0;bottom=0;right=0;editable=1;overflow=hidden;" vertex="1" parent="30"><mxGeometry width="30" height="30" as="geometry"><mxRectangle width="30" height="30" as="alternateBounds"/></mxGeometry></mxCell><mxCell id="32" value="dateNaissancePers" style="shape=partialRectangle;connectable=0;fillColor=none;top=0;left=0;bottom=0;right=0;align=left;spacingLeft=6;overflow=hidden;" vertex="1" parent="30"><mxGeometry x="30" width="150" height="30" as="geometry"><mxRectangle width="150" height="30" as="alternateBounds"/></mxGeometry></mxCell><mxCell id="34" style="edgeStyle=orthogonalEdgeStyle;html=1;" edge="1" parent="1" source="33" target="20"><mxGeometry relative="1" as="geometry"/></mxCell><mxCell id="33" value="IS_A" style="shape=rhombus;perimeter=rhombusPerimeter;whiteSpace=wrap;html=1;align=center;" vertex="1" parent="1"><mxGeometry x="60" y="340" width="120" height="60" as="geometry"/></mxCell><mxCell id="77" style="edgeStyle=orthogonalEdgeStyle;html=1;" edge="1" parent="1" source="35" target="33"><mxGeometry relative="1" as="geometry"/></mxCell><mxCell id="121" style="edgeStyle=orthogonalEdgeStyle;html=1;endArrow=none;endFill=0;" edge="1" parent="1" source="35" target="120"><mxGeometry relative="1" as="geometry"/></mxCell><mxCell id="35" value="CLIENT" style="shape=table;startSize=30;container=1;collapsible=1;childLayout=tableLayout;fixedRows=1;rowLines=0;fontStyle=1;align=center;resizeLast=1;" vertex="1" parent="1"><mxGeometry x="-100" y="480" width="180" height="60" as="geometry"/></mxCell><mxCell id="45" value="" style="shape=tableRow;horizontal=0;startSize=0;swimlaneHead=0;swimlaneBody=0;fillColor=none;collapsible=0;dropTarget=0;points=[[0,0.5],[1,0.5]];portConstraint=eastwest;top=0;left=0;right=0;bottom=0;" vertex="1" parent="35"><mxGeometry y="30" width="180" height="30" as="geometry"/></mxCell><mxCell id="46" value="" style="shape=partialRectangle;connectable=0;fillColor=none;top=0;left=0;bottom=0;right=0;editable=1;overflow=hidden;" vertex="1" parent="45"><mxGeometry width="30" height="30" as="geometry"><mxRectangle width="30" height="30" as="alternateBounds"/></mxGeometry></mxCell><mxCell id="47" value="nationnalite" style="shape=partialRectangle;connectable=0;fillColor=none;top=0;left=0;bottom=0;right=0;align=left;spacingLeft=6;overflow=hidden;" vertex="1" parent="45"><mxGeometry x="30" width="150" height="30" as="geometry"><mxRectangle width="150" height="30" as="alternateBounds"/></mxGeometry></mxCell><mxCell id="78" style="edgeStyle=orthogonalEdgeStyle;html=1;" edge="1" parent="1" source="64" target="33"><mxGeometry relative="1" as="geometry"/></mxCell><mxCell id="210" style="edgeStyle=orthogonalEdgeStyle;html=1;fontSize=12;endArrow=none;endFill=0;" edge="1" parent="1" source="64" target="207"><mxGeometry relative="1" as="geometry"/></mxCell><mxCell id="235" style="edgeStyle=orthogonalEdgeStyle;html=1;fontSize=12;endArrow=none;endFill=0;" edge="1" parent="1" source="64" target="208"><mxGeometry relative="1" as="geometry"/></mxCell><mxCell id="64" value="PERSONNEL" style="shape=table;startSize=30;container=1;collapsible=1;childLayout=tableLayout;fixedRows=1;rowLines=0;fontStyle=1;align=center;resizeLast=1;" vertex="1" parent="1"><mxGeometry x="160" y="480" width="180" height="90" as="geometry"/></mxCell><mxCell id="65" value="" style="shape=tableRow;horizontal=0;startSize=0;swimlaneHead=0;swimlaneBody=0;fillColor=none;collapsible=0;dropTarget=0;points=[[0,0.5],[1,0.5]];portConstraint=eastwest;top=0;left=0;right=0;bottom=0;" vertex="1" parent="64"><mxGeometry y="30" width="180" height="30" as="geometry"/></mxCell><mxCell id="66" value="" style="shape=partialRectangle;connectable=0;fillColor=none;top=0;left=0;bottom=0;right=0;editable=1;overflow=hidden;" vertex="1" parent="65"><mxGeometry width="30" height="30" as="geometry"><mxRectangle width="30" height="30" as="alternateBounds"/></mxGeometry></mxCell><mxCell id="67" value="fonction" style="shape=partialRectangle;connectable=0;fillColor=none;top=0;left=0;bottom=0;right=0;align=left;spacingLeft=6;overflow=hidden;" vertex="1" parent="65"><mxGeometry x="30" width="150" height="30" as="geometry"><mxRectangle width="150" height="30" as="alternateBounds"/></mxGeometry></mxCell><mxCell id="74" value="" style="shape=tableRow;horizontal=0;startSize=0;swimlaneHead=0;swimlaneBody=0;fillColor=none;collapsible=0;dropTarget=0;points=[[0,0.5],[1,0.5]];portConstraint=eastwest;top=0;left=0;right=0;bottom=0;" vertex="1" parent="64"><mxGeometry y="60" width="180" height="30" as="geometry"/></mxCell><mxCell id="75" value="" style="shape=partialRectangle;connectable=0;fillColor=none;top=0;left=0;bottom=0;right=0;editable=1;overflow=hidden;" vertex="1" parent="74"><mxGeometry width="30" height="30" as="geometry"><mxRectangle width="30" height="30" as="alternateBounds"/></mxGeometry></mxCell><mxCell id="76" value="departement" style="shape=partialRectangle;connectable=0;fillColor=none;top=0;left=0;bottom=0;right=0;align=left;spacingLeft=6;overflow=hidden;" vertex="1" parent="74"><mxGeometry x="30" width="150" height="30" as="geometry"><mxRectangle width="150" height="30" as="alternateBounds"/></mxGeometry></mxCell><mxCell id="81" value="T,E" style="text;html=1;align=center;verticalAlign=middle;resizable=0;points=[];autosize=1;strokeColor=none;fillColor=none;" vertex="1" parent="1"><mxGeometry x="120" y="410" width="40" height="30" as="geometry"/></mxCell><mxCell id="183" style="edgeStyle=orthogonalEdgeStyle;curved=1;html=1;fontSize=12;endArrow=none;endFill=0;" edge="1" parent="1" source="120" target="143"><mxGeometry relative="1" as="geometry"/></mxCell><mxCell id="120" value="RESERVE" style="shape=rhombus;perimeter=rhombusPerimeter;whiteSpace=wrap;html=1;align=center;" vertex="1" parent="1"><mxGeometry x="-410" y="480" width="120" height="60" as="geometry"/></mxCell><mxCell id="189" style="edgeStyle=orthogonalEdgeStyle;curved=1;html=1;fontSize=12;endArrow=none;endFill=0;" edge="1" parent="1" target="179"><mxGeometry relative="1" as="geometry"><mxPoint x="139.99999999999977" y="715" as="sourcePoint"/></mxGeometry></mxCell><mxCell id="195" style="edgeStyle=orthogonalEdgeStyle;curved=1;html=1;fontSize=12;endArrow=none;endFill=0;" edge="1" parent="1" source="141" target="194"><mxGeometry relative="1" as="geometry"/></mxCell><mxCell id="141" value="CHAMBRE&lt;br style=&quot;font-size: 12px;&quot;&gt;&lt;br style=&quot;font-size: 12px;&quot;&gt;&lt;u&gt;&lt;b style=&quot;font-size: 12px;&quot;&gt;+numC&lt;/b&gt;&lt;br style=&quot;font-size: 12px;&quot;&gt;&lt;/u&gt;+camacite&lt;br style=&quot;font-size: 12px;&quot;&gt;+superficie" style="shape=ext;margin=3;double=1;whiteSpace=wrap;html=1;align=center;fillColor=none;verticalAlign=top;fontSize=12;" vertex="1" parent="1"><mxGeometry x="10" y="680" width="130" height="100" as="geometry"/></mxCell><mxCell id="145" style="edgeStyle=orthogonalEdgeStyle;html=1;fontSize=12;endArrow=none;endFill=0;" edge="1" parent="1" target="144"><mxGeometry relative="1" as="geometry"><mxPoint x="-280" y="715.0588235294117" as="sourcePoint"/></mxGeometry></mxCell><mxCell id="143" value="RESERVATION&lt;br style=&quot;font-size: 12px;&quot;&gt;&lt;br style=&quot;font-size: 12px;&quot;&gt;&lt;b style=&quot;font-size: 12px;&quot;&gt;&lt;u&gt;+dateDebut&lt;/u&gt;&lt;/b&gt;&lt;br style=&quot;font-size: 12px;&quot;&gt;+prixRes&lt;br style=&quot;font-size: 12px;&quot;&gt;+dateFin&lt;br&gt;+nbAccomp" style="shape=ext;margin=3;double=1;whiteSpace=wrap;html=1;align=center;fillColor=none;verticalAlign=top;fontSize=12;" vertex="1" parent="1"><mxGeometry x="-420" y="680" width="140" height="110" as="geometry"/></mxCell><mxCell id="146" style="edgeStyle=orthogonalEdgeStyle;html=1;fontSize=12;endArrow=none;endFill=0;" edge="1" parent="1" source="144"><mxGeometry relative="1" as="geometry"><mxPoint x="10" y="715.0588235294117" as="targetPoint"/></mxGeometry></mxCell><mxCell id="144" value="RESERVATION_DE" style="shape=associativeEntity;whiteSpace=wrap;html=1;align=center;fontSize=12;fillColor=none;" vertex="1" parent="1"><mxGeometry x="-210" y="680" width="150" height="69" as="geometry"/></mxCell><mxCell id="154" value="HOTEL" style="shape=table;startSize=30;container=1;collapsible=1;childLayout=tableLayout;fixedRows=1;rowLines=0;fontStyle=1;align=center;resizeLast=1;" vertex="1" parent="1"><mxGeometry x="390" y="625" width="180" height="210" as="geometry"/></mxCell><mxCell id="155" value="" style="shape=tableRow;horizontal=0;startSize=0;swimlaneHead=0;swimlaneBody=0;fillColor=none;collapsible=0;dropTarget=0;points=[[0,0.5],[1,0.5]];portConstraint=eastwest;top=0;left=0;right=0;bottom=1;" vertex="1" parent="154"><mxGeometry y="30" width="180" height="30" as="geometry"/></mxCell><mxCell id="156" value="PK" style="shape=partialRectangle;connectable=0;fillColor=none;top=0;left=0;bottom=0;right=0;fontStyle=1;overflow=hidden;" vertex="1" parent="155"><mxGeometry width="30" height="30" as="geometry"><mxRectangle width="30" height="30" as="alternateBounds"/></mxGeometry></mxCell><mxCell id="157" value="codeH" style="shape=partialRectangle;connectable=0;fillColor=none;top=0;left=0;bottom=0;right=0;align=left;spacingLeft=6;fontStyle=5;overflow=hidden;" vertex="1" parent="155"><mxGeometry x="30" width="150" height="30" as="geometry"><mxRectangle width="150" height="30" as="alternateBounds"/></mxGeometry></mxCell><mxCell id="158" value="" style="shape=tableRow;horizontal=0;startSize=0;swimlaneHead=0;swimlaneBody=0;fillColor=none;collapsible=0;dropTarget=0;points=[[0,0.5],[1,0.5]];portConstraint=eastwest;top=0;left=0;right=0;bottom=0;" vertex="1" parent="154"><mxGeometry y="60" width="180" height="30" as="geometry"/></mxCell><mxCell id="159" value="" style="shape=partialRectangle;connectable=0;fillColor=none;top=0;left=0;bottom=0;right=0;editable=1;overflow=hidden;" vertex="1" parent="158"><mxGeometry width="30" height="30" as="geometry"><mxRectangle width="30" height="30" as="alternateBounds"/></mxGeometry></mxCell><mxCell id="160" value="nomH" style="shape=partialRectangle;connectable=0;fillColor=none;top=0;left=0;bottom=0;right=0;align=left;spacingLeft=6;overflow=hidden;" vertex="1" parent="158"><mxGeometry x="30" width="150" height="30" as="geometry"><mxRectangle width="150" height="30" as="alternateBounds"/></mxGeometry></mxCell><mxCell id="161" value="" style="shape=tableRow;horizontal=0;startSize=0;swimlaneHead=0;swimlaneBody=0;fillColor=none;collapsible=0;dropTarget=0;points=[[0,0.5],[1,0.5]];portConstraint=eastwest;top=0;left=0;right=0;bottom=0;" vertex="1" parent="154"><mxGeometry y="90" width="180" height="30" as="geometry"/></mxCell><mxCell id="162" value="" style="shape=partialRectangle;connectable=0;fillColor=none;top=0;left=0;bottom=0;right=0;editable=1;overflow=hidden;" vertex="1" parent="161"><mxGeometry width="30" height="30" as="geometry"><mxRectangle width="30" height="30" as="alternateBounds"/></mxGeometry></mxCell><mxCell id="163" value="addH" style="shape=partialRectangle;connectable=0;fillColor=none;top=0;left=0;bottom=0;right=0;align=left;spacingLeft=6;overflow=hidden;" vertex="1" parent="161"><mxGeometry x="30" width="150" height="30" as="geometry"><mxRectangle width="150" height="30" as="alternateBounds"/></mxGeometry></mxCell><mxCell id="164" value="" style="shape=tableRow;horizontal=0;startSize=0;swimlaneHead=0;swimlaneBody=0;fillColor=none;collapsible=0;dropTarget=0;points=[[0,0.5],[1,0.5]];portConstraint=eastwest;top=0;left=0;right=0;bottom=0;" vertex="1" parent="154"><mxGeometry y="120" width="180" height="30" as="geometry"/></mxCell><mxCell id="165" value="" style="shape=partialRectangle;connectable=0;fillColor=none;top=0;left=0;bottom=0;right=0;editable=1;overflow=hidden;" vertex="1" parent="164"><mxGeometry width="30" height="30" as="geometry"><mxRectangle width="30" height="30" as="alternateBounds"/></mxGeometry></mxCell><mxCell id="166" value="GPS" style="shape=partialRectangle;connectable=0;fillColor=none;top=0;left=0;bottom=0;right=0;align=left;spacingLeft=6;overflow=hidden;" vertex="1" parent="164"><mxGeometry x="30" width="150" height="30" as="geometry"><mxRectangle width="150" height="30" as="alternateBounds"/></mxGeometry></mxCell><mxCell id="170" value="" style="shape=tableRow;horizontal=0;startSize=0;swimlaneHead=0;swimlaneBody=0;fillColor=none;collapsible=0;dropTarget=0;points=[[0,0.5],[1,0.5]];portConstraint=eastwest;top=0;left=0;right=0;bottom=0;" vertex="1" parent="154"><mxGeometry y="150" width="180" height="30" as="geometry"/></mxCell><mxCell id="171" value="" style="shape=partialRectangle;connectable=0;fillColor=none;top=0;left=0;bottom=0;right=0;editable=1;overflow=hidden;" vertex="1" parent="170"><mxGeometry width="30" height="30" as="geometry"><mxRectangle width="30" height="30" as="alternateBounds"/></mxGeometry></mxCell><mxCell id="172" value="nbChambre" style="shape=partialRectangle;connectable=0;fillColor=none;top=0;left=0;bottom=0;right=0;align=left;spacingLeft=6;overflow=hidden;" vertex="1" parent="170"><mxGeometry x="30" width="150" height="30" as="geometry"><mxRectangle width="150" height="30" as="alternateBounds"/></mxGeometry></mxCell><mxCell id="173" value="" style="shape=tableRow;horizontal=0;startSize=0;swimlaneHead=0;swimlaneBody=0;fillColor=none;collapsible=0;dropTarget=0;points=[[0,0.5],[1,0.5]];portConstraint=eastwest;top=0;left=0;right=0;bottom=0;" vertex="1" parent="154"><mxGeometry y="180" width="180" height="30" as="geometry"/></mxCell><mxCell id="174" value="" style="shape=partialRectangle;connectable=0;fillColor=none;top=0;left=0;bottom=0;right=0;editable=1;overflow=hidden;" vertex="1" parent="173"><mxGeometry width="30" height="30" as="geometry"><mxRectangle width="30" height="30" as="alternateBounds"/></mxGeometry></mxCell><mxCell id="175" value="qualite" style="shape=partialRectangle;connectable=0;fillColor=none;top=0;left=0;bottom=0;right=0;align=left;spacingLeft=6;overflow=hidden;" vertex="1" parent="173"><mxGeometry x="30" width="150" height="30" as="geometry"><mxRectangle width="150" height="30" as="alternateBounds"/></mxGeometry></mxCell><mxCell id="191" style="edgeStyle=orthogonalEdgeStyle;curved=1;html=1;fontSize=12;endArrow=none;endFill=0;" edge="1" parent="1" source="179"><mxGeometry relative="1" as="geometry"><mxPoint x="389.9999999999998" y="715" as="targetPoint"/></mxGeometry></mxCell><mxCell id="179" value="SE_TROUVE" style="shape=associativeEntity;whiteSpace=wrap;html=1;align=center;fontSize=12;fillColor=none;" vertex="1" parent="1"><mxGeometry x="190" y="680" width="150" height="70" as="geometry"/></mxCell><mxCell id="192" value="" style="endArrow=classic;html=1;fontSize=12;curved=1;" edge="1" parent="1"><mxGeometry width="50" height="50" relative="1" as="geometry"><mxPoint x="-280" y="770" as="sourcePoint"/><mxPoint x="10" y="770" as="targetPoint"/><Array as="points"><mxPoint x="-130" y="800"/></Array></mxGeometry></mxCell><mxCell id="193" value="" style="endArrow=classic;html=1;fontSize=12;curved=1;" edge="1" parent="1"><mxGeometry width="50" height="50" relative="1" as="geometry"><mxPoint x="140" y="760" as="sourcePoint"/><mxPoint x="390" y="760" as="targetPoint"/><Array as="points"><mxPoint x="280" y="790"/></Array></mxGeometry></mxCell><mxCell id="197" style="edgeStyle=orthogonalEdgeStyle;curved=1;html=1;fontSize=12;endArrow=none;endFill=0;" edge="1" parent="1" source="194" target="196"><mxGeometry relative="1" as="geometry"/></mxCell><mxCell id="194" value="COMMANDE" style="shape=rhombus;perimeter=rhombusPerimeter;whiteSpace=wrap;html=1;align=center;" vertex="1" parent="1"><mxGeometry x="15" y="835" width="120" height="60" as="geometry"/></mxCell><mxCell id="201" style="edgeStyle=orthogonalEdgeStyle;curved=1;html=1;fontSize=12;endArrow=none;endFill=0;" edge="1" parent="1" source="196" target="198"><mxGeometry relative="1" as="geometry"/></mxCell><mxCell id="196" value="SERVICE&lt;br&gt;&lt;br style=&quot;font-size: 12px;&quot;&gt;&lt;u&gt;&lt;b style=&quot;font-size: 12px;&quot;&gt;+date, heure&lt;/b&gt;&lt;br style=&quot;font-size: 12px;&quot;&gt;&lt;/u&gt;+prixSer&lt;br style=&quot;font-size: 12px;&quot;&gt;+quantiteSer&lt;br&gt;+paye&lt;br&gt;+nomSer" style="shape=ext;margin=3;double=1;whiteSpace=wrap;html=1;align=center;fillColor=none;verticalAlign=top;fontSize=12;" vertex="1" parent="1"><mxGeometry x="10" y="980" width="130" height="120" as="geometry"/></mxCell><mxCell id="202" style="edgeStyle=orthogonalEdgeStyle;curved=1;html=1;fontSize=12;endArrow=none;endFill=0;" edge="1" parent="1" source="198" target="199"><mxGeometry relative="1" as="geometry"/></mxCell><mxCell id="198" value="SERVICE_DE" style="shape=associativeEntity;whiteSpace=wrap;html=1;align=center;fontSize=12;fillColor=none;" vertex="1" parent="1"><mxGeometry x="190" y="1005" width="150" height="70" as="geometry"/></mxCell><mxCell id="199" value="DEPARTEMENT&lt;br&gt;&lt;br style=&quot;font-size: 12px;&quot;&gt;&lt;u&gt;&lt;b style=&quot;font-size: 12px;&quot;&gt;+nomDep&lt;/b&gt;&lt;/u&gt;&lt;br style=&quot;font-size: 12px;&quot;&gt;+telDep" style="shape=ext;margin=3;double=1;whiteSpace=wrap;html=1;align=center;fillColor=none;verticalAlign=top;fontSize=12;" vertex="1" parent="1"><mxGeometry x="380" y="985" width="200" height="110" as="geometry"/></mxCell><mxCell id="205" style="edgeStyle=orthogonalEdgeStyle;curved=1;html=1;fontSize=12;endArrow=none;endFill=0;" edge="1" parent="1" source="203" target="154"><mxGeometry relative="1" as="geometry"/></mxCell><mxCell id="206" style="edgeStyle=orthogonalEdgeStyle;curved=1;html=1;fontSize=12;endArrow=none;endFill=0;" edge="1" parent="1" source="203" target="199"><mxGeometry relative="1" as="geometry"/></mxCell><mxCell id="203" value="DEPARTEMENT_DE" style="shape=associativeEntity;whiteSpace=wrap;html=1;align=center;fontSize=12;fillColor=none;" vertex="1" parent="1"><mxGeometry x="405" y="880" width="150" height="70" as="geometry"/></mxCell><mxCell id="211" style="edgeStyle=orthogonalEdgeStyle;html=1;fontSize=12;endArrow=none;endFill=0;" edge="1" parent="1" source="207" target="199"><mxGeometry relative="1" as="geometry"><Array as="points"><mxPoint x="690" y="1040"/></Array></mxGeometry></mxCell><mxCell id="207" value="DIRIGE" style="shape=rhombus;perimeter=rhombusPerimeter;whiteSpace=wrap;html=1;align=center;" vertex="1" parent="1"><mxGeometry x="630" y="625" width="120" height="60" as="geometry"/></mxCell><mxCell id="212" style="edgeStyle=orthogonalEdgeStyle;html=1;fontSize=12;endArrow=none;endFill=0;" edge="1" parent="1" source="208" target="199"><mxGeometry relative="1" as="geometry"><Array as="points"><mxPoint x="850" y="1040"/></Array></mxGeometry></mxCell><mxCell id="208" value="EST_MEMBRE" style="shape=rhombus;perimeter=rhombusPerimeter;whiteSpace=wrap;html=1;align=center;" vertex="1" parent="1"><mxGeometry x="790" y="625" width="120" height="60" as="geometry"/></mxCell><mxCell id="213" value="" style="endArrow=classic;html=1;fontSize=12;curved=1;" edge="1" parent="1"><mxGeometry width="50" height="50" relative="1" as="geometry"><mxPoint x="400" y="985" as="sourcePoint"/><mxPoint x="400" y="835" as="targetPoint"/><Array as="points"><mxPoint x="380" y="910"/></Array></mxGeometry></mxCell><mxCell id="214" value="" style="endArrow=classic;html=1;fontSize=12;curved=1;" edge="1" parent="1"><mxGeometry width="50" height="50" relative="1" as="geometry"><mxPoint x="140" y="998" as="sourcePoint"/><mxPoint x="380" y="998" as="targetPoint"/><Array as="points"><mxPoint x="260" y="978"/></Array></mxGeometry></mxCell><mxCell id="215" value="" style="endArrow=classic;html=1;fontSize=12;curved=1;entryX=1;entryY=1;entryDx=0;entryDy=0;" edge="1" parent="1"><mxGeometry width="50" height="50" relative="1" as="geometry"><mxPoint x="128.82" y="980" as="sourcePoint"/><mxPoint x="130" y="780" as="targetPoint"/><Array as="points"><mxPoint x="160" y="880"/></Array></mxGeometry></mxCell><mxCell id="219" value="0,n" style="text;html=1;align=center;verticalAlign=middle;resizable=0;points=[];autosize=1;strokeColor=none;fillColor=none;" vertex="1" parent="1"><mxGeometry x="-140" y="510" width="40" height="30" as="geometry"/></mxCell><mxCell id="221" value="1,1" style="text;html=1;align=center;verticalAlign=middle;resizable=0;points=[];autosize=1;strokeColor=none;fillColor=none;" vertex="1" parent="1"><mxGeometry x="-350" y="650" width="40" height="30" as="geometry"/></mxCell><mxCell id="222" value="1,1" style="text;html=1;align=center;verticalAlign=middle;resizable=0;points=[];autosize=1;strokeColor=none;fillColor=none;" vertex="1" parent="1"><mxGeometry x="-280" y="685" width="40" height="30" as="geometry"/></mxCell><mxCell id="223" value="0,n" style="text;html=1;align=center;verticalAlign=middle;resizable=0;points=[];autosize=1;strokeColor=none;fillColor=none;" vertex="1" parent="1"><mxGeometry x="-30" y="685" width="40" height="30" as="geometry"/></mxCell><mxCell id="224" value="1,1" style="text;html=1;align=center;verticalAlign=middle;resizable=0;points=[];autosize=1;strokeColor=none;fillColor=none;" vertex="1" parent="1"><mxGeometry x="140" y="685" width="40" height="30" as="geometry"/></mxCell><mxCell id="225" value="0,n" style="text;html=1;align=center;verticalAlign=middle;resizable=0;points=[];autosize=1;strokeColor=none;fillColor=none;" vertex="1" parent="1"><mxGeometry x="350" y="685" width="40" height="30" as="geometry"/></mxCell><mxCell id="226" value="0,n" style="text;html=1;align=center;verticalAlign=middle;resizable=0;points=[];autosize=1;strokeColor=none;fillColor=none;" vertex="1" parent="1"><mxGeometry x="70" y="780" width="40" height="30" as="geometry"/></mxCell><mxCell id="227" value="1,1" style="text;html=1;align=center;verticalAlign=middle;resizable=0;points=[];autosize=1;strokeColor=none;fillColor=none;" vertex="1" parent="1"><mxGeometry x="70" y="950" width="40" height="30" as="geometry"/></mxCell><mxCell id="228" value="1,1" style="text;html=1;align=center;verticalAlign=middle;resizable=0;points=[];autosize=1;strokeColor=none;fillColor=none;" vertex="1" parent="1"><mxGeometry x="140" y="1009" width="40" height="30" as="geometry"/></mxCell><mxCell id="229" value="0,n" style="text;html=1;align=center;verticalAlign=middle;resizable=0;points=[];autosize=1;strokeColor=none;fillColor=none;" vertex="1" parent="1"><mxGeometry x="340" y="1010" width="40" height="30" as="geometry"/></mxCell><mxCell id="230" value="1,1" style="text;html=1;align=center;verticalAlign=middle;resizable=0;points=[];autosize=1;strokeColor=none;fillColor=none;" vertex="1" parent="1"><mxGeometry x="480" y="955" width="40" height="30" as="geometry"/></mxCell><mxCell id="231" value="0,n" style="text;html=1;align=center;verticalAlign=middle;resizable=0;points=[];autosize=1;strokeColor=none;fillColor=none;" vertex="1" parent="1"><mxGeometry x="480" y="835" width="40" height="30" as="geometry"/></mxCell><mxCell id="232" value="1,1" style="text;html=1;align=center;verticalAlign=middle;resizable=0;points=[];autosize=1;strokeColor=none;fillColor=none;" vertex="1" parent="1"><mxGeometry x="650" y="975" width="40" height="30" as="geometry"/></mxCell><mxCell id="233" value="0,n" style="text;html=1;align=center;verticalAlign=middle;resizable=0;points=[];autosize=1;strokeColor=none;fillColor=none;" vertex="1" parent="1"><mxGeometry x="810" y="975" width="40" height="30" as="geometry"/></mxCell><mxCell id="234" value="0,1" style="text;html=1;align=center;verticalAlign=middle;resizable=0;points=[];autosize=1;strokeColor=none;fillColor=none;" vertex="1" parent="1"><mxGeometry x="640" y="590" width="40" height="30" as="geometry"/></mxCell><mxCell id="236" value="0,1" style="text;html=1;align=center;verticalAlign=middle;resizable=0;points=[];autosize=1;strokeColor=none;fillColor=none;" vertex="1" parent="1"><mxGeometry x="810" y="590" width="40" height="30" as="geometry"/></mxCell></root></mxGraphModel></diagram></mxfile>